<mxfile host="Electron" modified="2023-07-30T17:47:35.967Z" agent="Mozilla/5.0 (Windows NT 10.0; Win64; x64) AppleWebKit/537.36 (KHTML, like Gecko) draw.io/21.5.1 Chrome/112.0.5615.204 Electron/24.6.0 Safari/537.36" etag="d132QjF-d1IZx0ja9Hqy" version="21.5.1" type="device">
  <diagram name="Page-1" id="05SsWtOZEbtrFztw5R0R">
    <mxGraphModel dx="1282" dy="606" grid="1" gridSize="10" guides="1" tooltips="1" connect="1" arrows="1" fold="1" page="1" pageScale="1" pageWidth="850" pageHeight="1100" math="0" shadow="0">
      <root>
        <mxCell id="0" />
        <mxCell id="1" parent="0" />
        <mxCell id="v8IWpUud7RyiIBnhh-y--1" value="TV Channel" style="whiteSpace=wrap;html=1;align=center;fillColor=#A680B8;" vertex="1" parent="1">
          <mxGeometry x="100" y="130" width="100" height="40" as="geometry" />
        </mxCell>
        <mxCell id="v8IWpUud7RyiIBnhh-y--5" value="" style="edgeStyle=orthogonalEdgeStyle;rounded=0;orthogonalLoop=1;jettySize=auto;html=1;strokeColor=#FF0000;" edge="1" parent="1" source="v8IWpUud7RyiIBnhh-y--2" target="v8IWpUud7RyiIBnhh-y--4">
          <mxGeometry relative="1" as="geometry" />
        </mxCell>
        <mxCell id="v8IWpUud7RyiIBnhh-y--2" value="broadcasts" style="rhombus;whiteSpace=wrap;html=1;fillColor=#FFCCCC;" vertex="1" parent="1">
          <mxGeometry x="370" y="110" width="80" height="80" as="geometry" />
        </mxCell>
        <mxCell id="v8IWpUud7RyiIBnhh-y--4" value="Reality Show" style="whiteSpace=wrap;html=1;fillColor=#A680B8;" vertex="1" parent="1">
          <mxGeometry x="620" y="130" width="110" height="40" as="geometry" />
        </mxCell>
        <mxCell id="v8IWpUud7RyiIBnhh-y--8" value="" style="edgeStyle=orthogonalEdgeStyle;rounded=0;orthogonalLoop=1;jettySize=auto;html=1;entryX=0;entryY=0.5;entryDx=0;entryDy=0;fillColor=#33FF33;strokeColor=#FF0000;" edge="1" parent="1" source="v8IWpUud7RyiIBnhh-y--1" target="v8IWpUud7RyiIBnhh-y--2">
          <mxGeometry relative="1" as="geometry">
            <mxPoint x="220" y="150" as="sourcePoint" />
            <mxPoint x="230" y="150" as="targetPoint" />
          </mxGeometry>
        </mxCell>
        <mxCell id="v8IWpUud7RyiIBnhh-y--10" value="M" style="text;html=1;align=center;verticalAlign=middle;resizable=0;points=[];autosize=1;strokeColor=none;fillColor=none;" vertex="1" parent="1">
          <mxGeometry x="575" y="128" width="30" height="30" as="geometry" />
        </mxCell>
        <mxCell id="v8IWpUud7RyiIBnhh-y--11" value="I" style="text;html=1;align=center;verticalAlign=middle;resizable=0;points=[];autosize=1;strokeColor=none;fillColor=none;" vertex="1" parent="1">
          <mxGeometry x="200" y="128" width="30" height="30" as="geometry" />
        </mxCell>
        <mxCell id="v8IWpUud7RyiIBnhh-y--20" style="edgeStyle=orthogonalEdgeStyle;rounded=0;orthogonalLoop=1;jettySize=auto;html=1;exitX=0.5;exitY=0;exitDx=0;exitDy=0;entryX=0.5;entryY=1;entryDx=0;entryDy=0;strokeColor=#FF0000;" edge="1" parent="1" source="v8IWpUud7RyiIBnhh-y--12" target="v8IWpUud7RyiIBnhh-y--4">
          <mxGeometry relative="1" as="geometry" />
        </mxCell>
        <mxCell id="v8IWpUud7RyiIBnhh-y--12" value="produced" style="rhombus;whiteSpace=wrap;html=1;fillColor=#FFCCCC;" vertex="1" parent="1">
          <mxGeometry x="635" y="270" width="80" height="60" as="geometry" />
        </mxCell>
        <mxCell id="v8IWpUud7RyiIBnhh-y--17" style="edgeStyle=orthogonalEdgeStyle;rounded=0;orthogonalLoop=1;jettySize=auto;html=1;entryX=0.5;entryY=1;entryDx=0;entryDy=0;strokeColor=#FF0000;" edge="1" parent="1" source="v8IWpUud7RyiIBnhh-y--14" target="v8IWpUud7RyiIBnhh-y--12">
          <mxGeometry relative="1" as="geometry">
            <mxPoint x="678" y="340" as="targetPoint" />
          </mxGeometry>
        </mxCell>
        <mxCell id="v8IWpUud7RyiIBnhh-y--14" value="Producer" style="whiteSpace=wrap;html=1;fillColor=#A680B8;" vertex="1" parent="1">
          <mxGeometry x="612.5" y="430" width="125" height="40" as="geometry" />
        </mxCell>
        <mxCell id="v8IWpUud7RyiIBnhh-y--24" value="1" style="text;html=1;align=center;verticalAlign=middle;resizable=0;points=[];autosize=1;strokeColor=none;fillColor=none;" vertex="1" parent="1">
          <mxGeometry x="675" y="400" width="30" height="30" as="geometry" />
        </mxCell>
        <mxCell id="v8IWpUud7RyiIBnhh-y--25" value="M" style="text;html=1;align=center;verticalAlign=middle;resizable=0;points=[];autosize=1;strokeColor=none;fillColor=none;" vertex="1" parent="1">
          <mxGeometry x="675" y="170" width="30" height="30" as="geometry" />
        </mxCell>
        <mxCell id="v8IWpUud7RyiIBnhh-y--28" style="edgeStyle=orthogonalEdgeStyle;rounded=0;orthogonalLoop=1;jettySize=auto;html=1;exitX=1;exitY=0;exitDx=0;exitDy=0;entryX=0;entryY=0.5;entryDx=0;entryDy=0;strokeColor=#FF0000;" edge="1" parent="1" source="v8IWpUud7RyiIBnhh-y--26" target="v8IWpUud7RyiIBnhh-y--27">
          <mxGeometry relative="1" as="geometry" />
        </mxCell>
        <mxCell id="v8IWpUud7RyiIBnhh-y--26" value="User" style="whiteSpace=wrap;html=1;align=center;fillColor=#A680B8;" vertex="1" parent="1">
          <mxGeometry x="100" y="395" width="100" height="40" as="geometry" />
        </mxCell>
        <mxCell id="v8IWpUud7RyiIBnhh-y--29" style="edgeStyle=orthogonalEdgeStyle;rounded=0;orthogonalLoop=1;jettySize=auto;html=1;exitX=1;exitY=0.5;exitDx=0;exitDy=0;entryX=0;entryY=1;entryDx=0;entryDy=0;strokeColor=#FF0000;" edge="1" parent="1" source="v8IWpUud7RyiIBnhh-y--27" target="v8IWpUud7RyiIBnhh-y--4">
          <mxGeometry relative="1" as="geometry" />
        </mxCell>
        <mxCell id="v8IWpUud7RyiIBnhh-y--27" value="Rates" style="shape=rhombus;perimeter=rhombusPerimeter;whiteSpace=wrap;html=1;align=center;fillColor=#FFCCCC;" vertex="1" parent="1">
          <mxGeometry x="350" y="320" width="120" height="60" as="geometry" />
        </mxCell>
        <mxCell id="v8IWpUud7RyiIBnhh-y--31" value="M" style="text;html=1;align=center;verticalAlign=middle;resizable=0;points=[];autosize=1;strokeColor=none;fillColor=none;" vertex="1" parent="1">
          <mxGeometry x="170" y="370" width="30" height="30" as="geometry" />
        </mxCell>
        <mxCell id="v8IWpUud7RyiIBnhh-y--32" value="1" style="text;html=1;align=center;verticalAlign=middle;resizable=0;points=[];autosize=1;strokeColor=none;fillColor=none;" vertex="1" parent="1">
          <mxGeometry x="595" y="168" width="30" height="30" as="geometry" />
        </mxCell>
        <mxCell id="v8IWpUud7RyiIBnhh-y--35" value="Name" style="ellipse;whiteSpace=wrap;html=1;align=center;" vertex="1" parent="1">
          <mxGeometry x="20" y="50" width="80" height="40" as="geometry" />
        </mxCell>
        <mxCell id="v8IWpUud7RyiIBnhh-y--36" value="Start Year" style="ellipse;whiteSpace=wrap;html=1;align=center;" vertex="1" parent="1">
          <mxGeometry x="110" y="50" width="90" height="30" as="geometry" />
        </mxCell>
        <mxCell id="v8IWpUud7RyiIBnhh-y--37" value="Head Office" style="ellipse;whiteSpace=wrap;html=1;align=center;" vertex="1" parent="1">
          <mxGeometry x="225" y="50" width="85" height="40" as="geometry" />
        </mxCell>
        <mxCell id="v8IWpUud7RyiIBnhh-y--38" value="ChaID" style="ellipse;whiteSpace=wrap;html=1;align=center;fontStyle=4;" vertex="1" parent="1">
          <mxGeometry x="10" y="198" width="60" height="30" as="geometry" />
        </mxCell>
        <mxCell id="v8IWpUud7RyiIBnhh-y--45" value="" style="endArrow=none;html=1;rounded=0;entryX=0.436;entryY=1.005;entryDx=0;entryDy=0;entryPerimeter=0;strokeColor=#66FF66;" edge="1" parent="1" target="v8IWpUud7RyiIBnhh-y--1">
          <mxGeometry relative="1" as="geometry">
            <mxPoint x="50" y="200" as="sourcePoint" />
            <mxPoint x="140" y="180" as="targetPoint" />
          </mxGeometry>
        </mxCell>
        <mxCell id="v8IWpUud7RyiIBnhh-y--46" value="" style="endArrow=none;html=1;rounded=0;entryX=0.5;entryY=0;entryDx=0;entryDy=0;strokeColor=#33FF33;" edge="1" parent="1" target="v8IWpUud7RyiIBnhh-y--1">
          <mxGeometry relative="1" as="geometry">
            <mxPoint x="60" y="90" as="sourcePoint" />
            <mxPoint x="220" y="90" as="targetPoint" />
          </mxGeometry>
        </mxCell>
        <mxCell id="v8IWpUud7RyiIBnhh-y--47" value="" style="endArrow=none;html=1;rounded=0;strokeColor=#66FF66;" edge="1" parent="1" source="v8IWpUud7RyiIBnhh-y--36">
          <mxGeometry relative="1" as="geometry">
            <mxPoint x="155" y="80" as="sourcePoint" />
            <mxPoint x="150" y="130" as="targetPoint" />
          </mxGeometry>
        </mxCell>
        <mxCell id="v8IWpUud7RyiIBnhh-y--48" value="" style="endArrow=none;html=1;rounded=0;entryX=0.5;entryY=1;entryDx=0;entryDy=0;fillColor=#33FF99;strokeColor=#66FF66;" edge="1" parent="1" target="v8IWpUud7RyiIBnhh-y--37">
          <mxGeometry relative="1" as="geometry">
            <mxPoint x="150" y="130" as="sourcePoint" />
            <mxPoint x="310" y="130" as="targetPoint" />
          </mxGeometry>
        </mxCell>
        <mxCell id="v8IWpUud7RyiIBnhh-y--49" value="Basic Info" style="ellipse;whiteSpace=wrap;html=1;align=center;" vertex="1" parent="1">
          <mxGeometry x="535" y="60" width="90" height="30" as="geometry" />
        </mxCell>
        <mxCell id="v8IWpUud7RyiIBnhh-y--50" value="Participant names" style="ellipse;whiteSpace=wrap;html=1;align=center;" vertex="1" parent="1">
          <mxGeometry x="612.5" y="20" width="85" height="30" as="geometry" />
        </mxCell>
        <mxCell id="v8IWpUud7RyiIBnhh-y--51" value="Name" style="ellipse;whiteSpace=wrap;html=1;align=center;" vertex="1" parent="1">
          <mxGeometry x="715" y="50" width="85" height="30" as="geometry" />
        </mxCell>
        <mxCell id="v8IWpUud7RyiIBnhh-y--52" value="ShowID" style="ellipse;whiteSpace=wrap;html=1;align=center;fontStyle=4;" vertex="1" parent="1">
          <mxGeometry x="770" y="130" width="82.5" height="40" as="geometry" />
        </mxCell>
        <mxCell id="v8IWpUud7RyiIBnhh-y--53" value="" style="endArrow=none;html=1;rounded=0;entryX=0.5;entryY=1;entryDx=0;entryDy=0;exitX=0.5;exitY=0;exitDx=0;exitDy=0;strokeColor=#66FF66;" edge="1" parent="1" source="v8IWpUud7RyiIBnhh-y--4" target="v8IWpUud7RyiIBnhh-y--49">
          <mxGeometry relative="1" as="geometry">
            <mxPoint x="410" y="50" as="sourcePoint" />
            <mxPoint x="570" y="50" as="targetPoint" />
          </mxGeometry>
        </mxCell>
        <mxCell id="v8IWpUud7RyiIBnhh-y--54" value="" style="endArrow=none;html=1;rounded=0;entryX=0.5;entryY=0;entryDx=0;entryDy=0;exitX=0.5;exitY=1;exitDx=0;exitDy=0;strokeColor=#66FF66;" edge="1" parent="1" source="v8IWpUud7RyiIBnhh-y--50" target="v8IWpUud7RyiIBnhh-y--4">
          <mxGeometry relative="1" as="geometry">
            <mxPoint x="570" y="60" as="sourcePoint" />
            <mxPoint x="730" y="60" as="targetPoint" />
          </mxGeometry>
        </mxCell>
        <mxCell id="v8IWpUud7RyiIBnhh-y--55" value="" style="endArrow=none;html=1;rounded=0;exitX=0.5;exitY=1;exitDx=0;exitDy=0;strokeColor=#66FF66;" edge="1" parent="1" source="v8IWpUud7RyiIBnhh-y--51">
          <mxGeometry relative="1" as="geometry">
            <mxPoint x="410" y="130" as="sourcePoint" />
            <mxPoint x="670" y="130" as="targetPoint" />
          </mxGeometry>
        </mxCell>
        <mxCell id="v8IWpUud7RyiIBnhh-y--56" value="" style="endArrow=none;html=1;rounded=0;entryX=0;entryY=0.5;entryDx=0;entryDy=0;exitX=1;exitY=0.5;exitDx=0;exitDy=0;strokeColor=#66FF66;" edge="1" parent="1" source="v8IWpUud7RyiIBnhh-y--4" target="v8IWpUud7RyiIBnhh-y--52">
          <mxGeometry relative="1" as="geometry">
            <mxPoint x="730" y="140" as="sourcePoint" />
            <mxPoint x="890" y="140" as="targetPoint" />
          </mxGeometry>
        </mxCell>
        <mxCell id="v8IWpUud7RyiIBnhh-y--59" value="Country" style="ellipse;whiteSpace=wrap;html=1;align=center;" vertex="1" parent="1">
          <mxGeometry x="620" y="510" width="90" height="30" as="geometry" />
        </mxCell>
        <mxCell id="v8IWpUud7RyiIBnhh-y--60" value="Company Name" style="ellipse;whiteSpace=wrap;html=1;align=center;" vertex="1" parent="1">
          <mxGeometry x="480" y="490" width="90" height="40" as="geometry" />
        </mxCell>
        <mxCell id="v8IWpUud7RyiIBnhh-y--62" value="ProID" style="ellipse;whiteSpace=wrap;html=1;align=center;fontStyle=4;" vertex="1" parent="1">
          <mxGeometry x="737.5" y="490" width="87.5" height="40" as="geometry" />
        </mxCell>
        <mxCell id="v8IWpUud7RyiIBnhh-y--63" value="" style="endArrow=none;html=1;rounded=0;entryX=0.447;entryY=1.045;entryDx=0;entryDy=0;entryPerimeter=0;exitX=0.582;exitY=0.045;exitDx=0;exitDy=0;exitPerimeter=0;strokeColor=#66FF66;" edge="1" parent="1" source="v8IWpUud7RyiIBnhh-y--60" target="v8IWpUud7RyiIBnhh-y--14">
          <mxGeometry relative="1" as="geometry">
            <mxPoint x="500" y="440" as="sourcePoint" />
            <mxPoint x="660" y="440" as="targetPoint" />
          </mxGeometry>
        </mxCell>
        <mxCell id="v8IWpUud7RyiIBnhh-y--65" value="" style="endArrow=none;html=1;rounded=0;entryX=0.428;entryY=1.085;entryDx=0;entryDy=0;entryPerimeter=0;exitX=0.5;exitY=0;exitDx=0;exitDy=0;strokeColor=#66FF66;" edge="1" parent="1" source="v8IWpUud7RyiIBnhh-y--62" target="v8IWpUud7RyiIBnhh-y--14">
          <mxGeometry relative="1" as="geometry">
            <mxPoint x="500" y="440" as="sourcePoint" />
            <mxPoint x="660" y="440" as="targetPoint" />
          </mxGeometry>
        </mxCell>
        <mxCell id="v8IWpUud7RyiIBnhh-y--66" value="" style="endArrow=none;html=1;rounded=0;exitX=0.5;exitY=0;exitDx=0;exitDy=0;strokeColor=#66FF66;" edge="1" parent="1" source="v8IWpUud7RyiIBnhh-y--59">
          <mxGeometry relative="1" as="geometry">
            <mxPoint x="500" y="440" as="sourcePoint" />
            <mxPoint x="660" y="470" as="targetPoint" />
          </mxGeometry>
        </mxCell>
        <mxCell id="v8IWpUud7RyiIBnhh-y--67" value="Passward" style="ellipse;whiteSpace=wrap;html=1;align=center;" vertex="1" parent="1">
          <mxGeometry x="10" y="470" width="80" height="30" as="geometry" />
        </mxCell>
        <mxCell id="v8IWpUud7RyiIBnhh-y--68" value="UserID" style="ellipse;whiteSpace=wrap;html=1;align=center;fontStyle=4;" vertex="1" parent="1">
          <mxGeometry x="110" y="495" width="80" height="30" as="geometry" />
        </mxCell>
        <mxCell id="v8IWpUud7RyiIBnhh-y--69" value="Age" style="ellipse;whiteSpace=wrap;html=1;align=center;dashed=1;" vertex="1" parent="1">
          <mxGeometry x="200" y="460" width="80" height="30" as="geometry" />
        </mxCell>
        <mxCell id="v8IWpUud7RyiIBnhh-y--70" value="" style="endArrow=none;html=1;rounded=0;exitX=0.5;exitY=0;exitDx=0;exitDy=0;entryX=0.5;entryY=1;entryDx=0;entryDy=0;strokeColor=#66FF66;" edge="1" parent="1" source="v8IWpUud7RyiIBnhh-y--69" target="v8IWpUud7RyiIBnhh-y--26">
          <mxGeometry relative="1" as="geometry">
            <mxPoint x="500" y="440" as="sourcePoint" />
            <mxPoint x="660" y="440" as="targetPoint" />
          </mxGeometry>
        </mxCell>
        <mxCell id="v8IWpUud7RyiIBnhh-y--71" value="" style="endArrow=none;html=1;rounded=0;exitX=0.5;exitY=0;exitDx=0;exitDy=0;entryX=0.5;entryY=1;entryDx=0;entryDy=0;strokeColor=#66FF66;" edge="1" parent="1" source="v8IWpUud7RyiIBnhh-y--68" target="v8IWpUud7RyiIBnhh-y--26">
          <mxGeometry relative="1" as="geometry">
            <mxPoint x="500" y="440" as="sourcePoint" />
            <mxPoint x="660" y="440" as="targetPoint" />
          </mxGeometry>
        </mxCell>
        <mxCell id="v8IWpUud7RyiIBnhh-y--72" value="" style="endArrow=none;html=1;rounded=0;exitX=0.5;exitY=0;exitDx=0;exitDy=0;entryX=0.5;entryY=1;entryDx=0;entryDy=0;strokeColor=#66FF66;" edge="1" parent="1" source="v8IWpUud7RyiIBnhh-y--67" target="v8IWpUud7RyiIBnhh-y--26">
          <mxGeometry relative="1" as="geometry">
            <mxPoint x="500" y="440" as="sourcePoint" />
            <mxPoint x="660" y="440" as="targetPoint" />
          </mxGeometry>
        </mxCell>
      </root>
    </mxGraphModel>
  </diagram>
</mxfile>
